<?xml version="1.0" encoding="UTF-8" standalone="no"?>
<!-- Created with Inkscape (http://www.inkscape.org/) -->

<svg
   xmlns:dc="http://purl.org/dc/elements/1.1/"
   xmlns:cc="http://creativecommons.org/ns#"
   xmlns:rdf="http://www.w3.org/1999/02/22-rdf-syntax-ns#"
   xmlns:svg="http://www.w3.org/2000/svg"
   xmlns="http://www.w3.org/2000/svg"
   xmlns:sodipodi="http://sodipodi.sourceforge.net/DTD/sodipodi-0.dtd"
   xmlns:inkscape="http://www.inkscape.org/namespaces/inkscape"
   width="454.06625"
   height="499.58926"
   id="svg3027"
   version="1.1"
   inkscape:version="0.48.2 r9819"
   sodipodi:docname="wtMan4-10.svg"
   inkscape:export-filename="C:\Users\odin\Pictures\wtweb\wtMan4-10.png"
   inkscape:export-xdpi="90"
   inkscape:export-ydpi="90">
  <sodipodi:namedview
     pagecolor="#ffffff"
     bordercolor="#666666"
     borderopacity="1.0"
     inkscape:pageopacity="0.0"
     inkscape:pageshadow="2"
     inkscape:zoom="1.195993"
     inkscape:cx="171.20208"
     inkscape:cy="213.51273"
     inkscape:document-units="px"
     inkscape:current-layer="g3056"
     id="namedview3031"
     showgrid="false"
     units="px"
     inkscape:window-width="1557"
     inkscape:window-height="1034"
     inkscape:window-x="116"
     inkscape:window-y="0"
     inkscape:window-maximized="0"
     showborder="true"
     fit-margin-top="0"
     fit-margin-left="0"
     fit-margin-right="0"
     fit-margin-bottom="0"
     inkscape:snap-grids="false"
     inkscape:snap-to-guides="false"
     inkscape:snap-nodes="false">
    <inkscape:grid
       type="xygrid"
       id="grid3036"
       empspacing="5"
       visible="true"
       enabled="true"
       snapvisiblegridlinesonly="true"
       spacingx="10px"
       spacingy="10px" />
  </sodipodi:namedview>
  <defs
     id="defs3029">
    <inkscape:path-effect
       effect="skeletal"
       id="path-effect3081"
       is_visible="true"
       pattern="M 0,0 1,0"
       copytype="single_stretched"
       prop_scale="1"
       scale_y_rel="false"
       spacing="0"
       normal_offset="0"
       tang_offset="0"
       prop_units="false"
       vertical_pattern="false"
       fuse_tolerance="0" />
    <inkscape:path-effect
       effect="knot"
       id="path-effect3079"
       is_visible="false"
       interruption_width="3"
       prop_to_stroke_width="true"
       add_stroke_width="true"
       add_other_stroke_width="true"
       switcher_size="15"
       crossing_points_vector="-102 | 215.00016 | 0 | 0 | 0 | 0 | 3.8146973e-006 | 30.000019 | 1 | -102 | 215.00016 | 0 | 0 | 0 | 0 | 3.8146973e-006 | 30.000027 | 1 | -102 | 215.00048 | 0 | 0 | 0 | 18 | 1.1444092e-005 | 30.000019 | 1 | -102 | 215.00048 | 0 | 0 | 0 | 19 | 1.1444092e-005 | 30.000027 | 1 | -102 | 215.00016 | 0 | 0 | 0 | 0 | 3.8146973e-006 | 30.000034 | 1 | -102 | 215.00016 | 0 | 0 | 0 | 0 | 3.8146973e-006 | 30.000042 | 1 | -102 | 215.00048 | 0 | 0 | 0 | 0 | 1.1444092e-005 | 30.000034 | 1 | -102 | 215.00048 | 0 | 0 | 0 | 0 | 1.1444092e-005 | 30.000042 | 1 | -102 | 215.00016 | 0 | 0 | 0 | 0 | 3.8146973e-006 | 30.00005 | 1 | -102 | 215.00016 | 0 | 0 | 0 | 0 | 3.8146973e-006 | 30.000057 | 1 | -102 | 215.00048 | 0 | 0 | 0 | 0 | 1.1444092e-005 | 30.00005 | 1 | -102 | 215.00048 | 0 | 0 | 0 | 0 | 1.1444092e-005 | 30.000057 | 1 | -102 | 215.0008 | 0 | 0 | 0 | 0 | 1.9073487e-005 | 30.000034 | 1 | -102 | 215.0008 | 0 | 0 | 0 | 0 | 1.9073487e-005 | 30.000042 | 1 | -102 | 215.00112 | 0 | 0 | 0 | 20 | 2.6702881e-005 | 30.000034 | 1 | -102 | 215.00112 | 0 | 0 | 0 | 21 | 2.6702881e-005 | 30.000042 | 1 | -102 | 215.0008 | 0 | 0 | 0 | 0 | 1.9073487e-005 | 30.00005 | 1 | -102 | 215.0008 | 0 | 0 | 0 | 0 | 1.9073487e-005 | 30.000057 | 1 | -102 | 215.00112 | 0 | 0 | 0 | 22 | 2.6702881e-005 | 30.00005 | 1 | -102 | 215.00112 | 0 | 0 | 0 | 23 | 2.6702881e-005 | 30.000057 | 1 | -102 | 215.00016 | 0 | 0 | 0 | 0 | 3.8146973e-006 | 31.000019 | 1 | -102 | 215.00016 | 0 | 0 | 0 | 0 | 3.8146973e-006 | 31.000027 | 1 | -102 | 215.00048 | 0 | 0 | 0 | 24 | 1.1444092e-005 | 31.000019 | 1 | -102 | 215.00048 | 0 | 0 | 0 | 25 | 1.1444092e-005 | 31.000027 | 1 | -102 | 215.00016 | 0 | 0 | 0 | 0 | 3.8146973e-006 | 31.000034 | 1 | -102 | 215.00016 | 0 | 0 | 0 | 0 | 3.8146973e-006 | 31.000042 | 1 | -102 | 215.00048 | 0 | 0 | 0 | 0 | 1.1444092e-005 | 31.000034 | 1 | -102 | 215.00048 | 0 | 0 | 0 | 0 | 1.1444092e-005 | 31.000042 | 1 | -102 | 215.00016 | 0 | 0 | 0 | 0 | 3.8146973e-006 | 31.00005 | 1 | -102 | 215.00016 | 0 | 0 | 0 | 0 | 3.8146973e-006 | 31.000057 | 1 | -102 | 215.00048 | 0 | 0 | 0 | 0 | 1.1444092e-005 | 31.00005 | 1 | -102 | 215.00048 | 0 | 0 | 1 | 0 | 1.1444092e-005 | 31.000057 | 1 | -102 | 215.0008 | 0 | 0 | 0 | 0 | 1.9073487e-005 | 31.000034 | 1 | -102 | 215.0008 | 0 | 0 | 0 | 0 | 1.9073487e-005 | 31.000042 | 1 | -102 | 215.00112 | 0 | 0 | 0 | 26 | 2.6702881e-005 | 31.000034 | 1 | -102 | 215.00112 | 0 | 0 | 0 | 27 | 2.6702881e-005 | 31.000042 | 1 | -102 | 215.0008 | 0 | 0 | 0 | 0 | 1.9073487e-005 | 31.00005 | 1 | -102 | 215.0008 | 0 | 0 | 2 | 0 | 1.9073487e-005 | 31.000057 | 1 | -102 | 215.00112 | 0 | 0 | 0 | 28 | 2.6702881e-005 | 31.00005 | 1 | -102 | 215.00112 | 0 | 0 | 3 | 29 | 2.6702881e-005 | 31.000057 | 1 | -59.312305 | 637 | 0 | 0 | 0 | 0 | 12.000004 | 15.000004 | 1 | -59.311915 | 637 | 0 | 0 | 0 | 0 | 12.000011 | 15.000004 | 1 | -59.312305 | 637 | 0 | 0 | 0 | 0 | 12.000004 | 15.000011 | 1 | -59.311915 | 637 | 0 | 0 | 0 | 0 | 12.000011 | 15.000011 | 1 | -59.311525 | 637 | 0 | 0 | 0 | 0 | 12.000019 | 15.000004 | 1 | -59.311136 | 637 | 0 | 0 | 0 | 0 | 12.000027 | 15.000004 | 1 | -59.311525 | 637 | 0 | 0 | 0 | 0 | 12.000019 | 15.000011 | 1 | -59.311136 | 637 | 0 | 0 | 0 | 0 | 12.000027 | 15.000011 | 1 | -59.312305 | 637 | 0 | 0 | 0 | 0 | 12.000004 | 15.000019 | 1 | -59.312305 | 637 | 0 | 0 | 0 | 0 | 12.000004 | 15.000027 | 1 | -59.311915 | 637 | 0 | 0 | 0 | 0 | 12.000011 | 15.000019 | 1 | -59.311915 | 637 | 0 | 0 | 5 | 0 | 12.000011 | 15.000027 | 1 | -59.311525 | 637 | 0 | 0 | 0 | 0 | 12.000019 | 15.000019 | 1 | -59.311136 | 637 | 0 | 0 | 0 | 0 | 12.000027 | 15.000019 | 1 | -59.311525 | 637 | 0 | 0 | 6 | 0 | 12.000019 | 15.000027 | 1 | -59.311136 | 637 | 0 | 0 | 7 | 0 | 12.000027 | 15.000027 | 1 | -59.310746 | 637 | 0 | 0 | 0 | 0 | 12.000034 | 15.000004 | 1 | -59.310356 | 637 | 0 | 0 | 0 | 0 | 12.000042 | 15.000004 | 1 | -59.310746 | 637 | 0 | 0 | 0 | 0 | 12.000034 | 15.000011 | 1 | -59.310356 | 637 | 0 | 0 | 0 | 0 | 12.000042 | 15.000011 | 1 | -59.309966 | 637 | 0 | 0 | 0 | 0 | 12.00005 | 15.000004 | 1 | -59.309576 | 637 | 0 | 0 | 0 | 12 | 12.000057 | 15.000004 | 1 | -59.309966 | 637 | 0 | 0 | 0 | 0 | 12.00005 | 15.000011 | 1 | -59.309576 | 637 | 0 | 0 | 0 | 13 | 12.000057 | 15.000011 | 1 | -59.310746 | 637 | 0 | 0 | 0 | 0 | 12.000034 | 15.000019 | 1 | -59.310356 | 637 | 0 | 0 | 0 | 0 | 12.000042 | 15.000019 | 1 | -59.310746 | 637 | 0 | 0 | 8 | 0 | 12.000034 | 15.000027 | 1 | -59.310356 | 637 | 0 | 0 | 9 | 0 | 12.000042 | 15.000027 | 1 | -59.309966 | 637 | 0 | 0 | 0 | 0 | 12.00005 | 15.000019 | 1 | -59.309576 | 637 | 0 | 0 | 0 | 14 | 12.000057 | 15.000019 | 1 | -59.309966 | 637 | 0 | 0 | 10 | 0 | 12.00005 | 15.000027 | 1 | -59.309576 | 637 | 0 | 0 | 11 | 15 | 12.000057 | 15.000027 | 1 | -59.312305 | 637 | 0 | 0 | 0 | 16 | 12.000004 | 15.000034 | 1 | -59.312305 | 637 | 0 | 0 | 4 | 17 | 12.000004 | 15.000042 | 1" />
    <inkscape:path-effect
       effect="vonkoch"
       id="path-effect3077"
       is_visible="true"
       ref_path="m -213.375,425.09375 428.71875,0"
       generator="m -213.375,637.1875 142.90625,0 m 142.90625,0 142.90625,0"
       similar_only="false"
       nbgenerations="1"
       drawall="true"
       maxComplexity="1000" />
    <inkscape:path-effect
       effect="spiro"
       id="path-effect3073"
       is_visible="true" />
  </defs>
  <metadata
     id="metadata3033">
    <rdf:RDF>
      <cc:Work
         rdf:about="">
        <dc:format>image/svg+xml</dc:format>
        <dc:type
           rdf:resource="http://purl.org/dc/dcmitype/StillImage" />
        <dc:title></dc:title>
      </cc:Work>
    </rdf:RDF>
  </metadata>
  <g
     transform="translate(268.21039,-163.79283)"
     inkscape:label="Layer 1"
     inkscape:groupmode="layer"
     id="layer1"
     style="display:none">
    <path
       style="fill:#000000"
       d="M 96.798595,421.00881 C 65.281395,289.04253 30.772044,137.44092 0,5 -7.1357749,-24.842262 30.244308,4.880512 40,5 c 25.494232,116.14651 51.286073,238.21641 75.26035,355.65691 18.81453,-79.43075 36.80598,-159.37707 55.32963,-238.99028 10.09346,-0.41889 20.1869,-0.83778 30.28036,-1.25668 0,-26.618119 0,-53.236246 0,-79.8544 -7.12214,0 -50.24425,0 -57.36639,0 C 134.33358,16.169732 130.05789,-3.5060207 144,5 c 16.84658,0 150.10326,0 166.94984,0 0,11.851842 0,23.703708 0,35.55555 -7.66984,0 -75.33966,0 -83.0095,0 0,26.66667 0,53.3333 0,79.99998 10.26883,0 20.53767,0 30.8065,0 18.3686,80.28938 37.0945,160.35729 55.39293,240.69007 24.30833,-118.69648 50.92446,-236.06458 76.51022,-354.0233779 12.08495,0 24.16992,0 36.25488,0 -0.29428,39.5527919 -15.68309,72.4800869 -21.93461,109.5876379 -23.98227,101.28342 -47.62236,202.78795 -72.14008,303.72736 -12.89969,4.89026 -37.02263,14.7762 -42.87231,-9.73672 -15.97254,-71.86613 -32.63504,-143.33222 -47.58407,-215.80055 -5.7857,27.20822 -14.13153,56.70628 -2.50324,83.5409 10.95709,47.41179 21.87008,94.85098 32.79385,142.28346 -17.246,11.15045 -42.29091,8.95432 -43.64138,-29.4154 -5.18658,-18.20478 -9.22881,-52.96918 -14.74021,-61.14073 -8.88817,30.72938 -12.09737,65.23752 -22.68931,94.73182 -11.44747,0 -22.89495,0 -34.34243,0 10.50805,-62.0249 22.25368,-88.54367 32.74892,-150 -3.13621,-15.73248 0.22817,-63.45987 -2.90804,-79.19235 -16.19287,75.93048 -32.7355,151.67364 -50.46546,226.67854 -11.68248,2.9987 -29.94574,6.43892 -39.827905,-1.47738 z"
       id="path3022"
       inkscape:connector-curvature="0"
       sodipodi:nodetypes="ccccccccccccccccccccccccccccccc" />
  </g>
  <g
     transform="translate(268.21039,-163.79283)"
     id="g3056"
     inkscape:groupmode="layer"
     inkscape:label="Layer 1 copy"
     style="display:inline">
    <g
       id="g3446">
      <path
         inkscape:connector-curvature="0"
         id="path3058"
         d="m -15.96768,262.3647 c 2.266588,8.20958 18.9296103,37.52942 18.9296103,37.52942 0,0 80.4447477,-52.54996 87.1122777,-38.5672 -2.760967,11.2123 -79.670699,80.67657 -89.94236744,86.67521 C -12.319775,355.27385 6.3020234,458.22674 4.9630744,465.46155 1.3886744,461.70435 -48.964318,364.622 -53.153279,360.67423 -80.231834,378.17249 -241.37564,520.14782 -266.14729,570.182 c 20.83231,-71.7468 60.25606,-286.36316 7.31923,-305.45239 -8.58757,6.42827 -2.75608,30.626 -11.24831,38.83204 50.78734,11.8632 33.6427,228.90896 55.68865,330.68791 -17.89969,-43.87114 94.17214,-205.39017 140.700816,-214.64329 -10.73129,3.81614 -43.317436,44.88738 -52.546706,53.38009 -17.55782,22.77168 -32.46405,139.27316 -19.57984,176.09663 6.43176,0.50699 37.67936,4.33625 45.71025,5.65983 -10.47256,-15.68343 -23.50378,-80.48878 -25.49235,-96.12551 4.56732,16.95352 29.026135,83.63062 42.589129,98.92364 10.403836,1.44965 55.998869,5.44226 68.374401,5.84113 -30.966498,-23.32401 -88.66683,-132.66807 -86.59499,-160.15075 7.832056,-5.63641 45.408703,-21.53156 56.36657,-24.49183 C -65.069704,503.82718 9.2472405,632.12684 48.663117,662.62446 58.470465,661.07911 99.236594,652.0016 109.75117,648.9463 98.590381,620.85272 148.58949,348.93254 169.66633,272.2361 164.28367,239.74758 120.6775,194.33745 96.851369,163.79283 105.05338,168.06077 169.87529,395.85806 161.18326,403.71976 187.13208,508.39538 15.264271,621.74698 -8.310999,658.00266 -21.6553,627.21879 15.795555,484.03649 41.138518,443.25988 38.007293,441.15539 -29.855592,399.19581 -32.889317,396.29582 -15.74252,372.96911 76.10291,347.45855 83.635707,337.57668 c 7.53279,-9.88188 9.223168,-73.10951 9.671478,-70.95252 0.89662,4.31399 11.794445,48.69269 -0.469719,92.7264 5.850117,-11.84907 39.513704,-11.38455 39.513704,-11.38455"
         style="fill:#5e1c3f;fill-opacity:1;fill-rule:nonzero;stroke:none"
         sodipodi:nodetypes="cccscccccccccccccccccccccccsscc" />
    </g>
  </g>
</svg>
